<svg xmlns="http://www.w3.org/2000/svg" viewBox="0 0 46.302 10.583" ><g aria-label="supermidi." fill="currentColor" stroke-width="0"><path d="M1.755 8.108q-.899 0-1.755-.395l.307-1.13q.856.533 1.543.533.391 0 .582-.17.2-.171.2-.438 0-.288-.18-.438-.179-.149-.623-.298-.624-.214-.94-.512-.318-.3-.318-.875 0-.79.581-1.291.592-.512 1.629-.512.888 0 1.575.395L4.07 4.043q-.708-.512-1.437-.512-.381 0-.614.15-.222.138-.222.437 0 .213.117.352.126.128.274.203.16.064.635.235.592.213.867.544.275.33.275.896 0 .49-.254.896-.254.395-.761.63-.497.234-1.195.234zM6.608 8.108q-.846 0-1.28-.48-.422-.49-.422-1.344 0-.278.074-.704l.497-2.913h1.31l-.475 2.817q-.074.405-.074.618 0 .46.19.683Q6.63 7 7.02 7q.571 0 .994-.448l.687-3.884h1.311l-.93 5.335H7.845l.053-.395q-.317.245-.624.373-.296.128-.666.128zM11.26 2.667h1.152l.01.47q.71-.555 1.534-.555.877 0 1.364.608.497.608.497 1.643 0 .97-.328 1.718-.317.736-.92 1.152-.592.405-1.396.405-.507 0-.866-.192-.36-.192-.571-.512l-.55 3.18H9.875zm1.808 4.353q.623 0 1.004-.576.391-.576.391-1.483 0-.598-.232-.939-.222-.352-.688-.352-.708 0-1.141.619-.423.619-.423 1.536 0 1.195 1.089 1.195zM18.709 8.108q-1.153 0-1.745-.64-.592-.64-.592-1.654 0-.821.37-1.568.38-.747 1.057-1.205.688-.46 1.554-.46.825 0 1.27.417.454.416.454 1.13 0 .908-.72 1.334-.708.416-1.807.416-.529 0-.804-.064.032.62.381.918.349.288.835.288.846 0 1.66-.437l-.148 1.12q-.75.405-1.765.405zm-.37-3.094q.888 0 1.258-.234.38-.235.38-.587 0-.31-.222-.416-.211-.107-.454-.107-.55 0-.941.416-.38.416-.508.886.17.042.487.042zM22.348 2.667h1.248l-.085.566q.233-.246.624-.448.391-.203.793-.203h.37l-.465 1.248h-.497q-.296 0-.57.15-.265.149-.403.383l-.645 3.639h-1.3zM25.941 2.667h1.079v.416q.243-.213.613-.352.37-.15.761-.15.444 0 .814.204.38.202.56.608.19-.3.688-.555.497-.256 1.12-.256.825 0 1.237.48.423.48.423 1.301 0 .203-.127.993-.126.79-.444 2.646h-1.31q.317-1.836.433-2.572.127-.736.127-.885 0-.502-.18-.683-.18-.192-.529-.192-.528 0-.803.299-.264.298-.338.736l-.571 3.297h-1.3l.21-1.227q.191-1.1.276-1.633.095-.544.095-.704 0-.768-.814-.768-.286 0-.518.117-.222.107-.434.32l-.687 3.895H25.01zM35.15.533h1.32l-.232 1.323h-1.31zm-.37 2.134h1.31l-.93 5.335h-1.311zM42.488 0l-1.395 8.002h-1.248l.106-.566q-.719.672-1.533.672-.899 0-1.396-.597-.496-.608-.496-1.558 0-.864.327-1.643.339-.779.962-1.248.624-.48 1.449-.48.877 0 1.342.65L41.177 0zm-3.615 7.02q.497 0 .824-.32.339-.32.497-.81.159-.492.159-1.004 0-1.216-.941-1.216-.444 0-.793.288-.349.277-.54.758-.19.48-.19 1.056 0 .587.244.917.243.331.74.331zM43.636.533h1.321l-.232 1.323h-1.311zm-.37 2.134h1.31l-.93 5.335h-1.31zM44.928 6.55h1.374l-.254 1.452h-1.374z"/></g></svg>